<svg version="1.1" id="Layer_1" xmlns="http://www.w3.org/2000/svg" xmlns:xlink="http://www.w3.org/1999/xlink" x="0px" y="0px"
	 width="100%" viewBox="0 0 224 224" enable-background="new 0 0 224 224" xml:space="preserve">
<path fill="#000000" opacity="1.000000" stroke="none" 
	d="
M135.838745,48.817970 
	C149.970139,51.922966 161.909714,57.995678 171.041092,68.978683 
	C186.941208,88.102921 184.173569,114.942810 164.913223,131.424164 
	C154.355667,140.458435 141.649109,143.924576 128.628937,146.992645 
	C103.542427,152.904007 78.482155,158.926682 53.410210,164.899887 
	C52.601208,165.092636 51.785385,165.258255 50.969589,165.420700 
	C49.377060,165.737823 47.644249,166.615005 46.386063,164.859436 
	C45.148567,163.132721 46.392204,161.680527 47.246025,160.300430 
	C54.254684,148.971680 61.259174,137.639923 68.360336,126.369209 
	C69.688164,124.261726 70.474426,122.602257 68.897453,120.082497 
	C54.204735,96.605804 64.044846,70.316452 86.735939,56.779068 
	C101.881493,47.743320 118.273643,45.886459 135.838745,48.817970 
M68.359932,85.916534 
	C65.112350,95.610992 65.344597,105.695145 71.038940,113.758232 
	C76.652023,121.706230 74.373047,127.168037 69.617805,133.515610 
	C67.229477,136.703705 65.286140,140.228790 63.190159,143.631409 
	C60.082191,148.676926 57.017406,153.749054 53.557419,159.428375 
	C55.039104,159.284882 55.675575,159.296219 56.275986,159.154602 
	C82.650543,152.934189 109.011406,146.655289 135.400528,140.497391 
	C142.607315,138.815704 149.424698,136.292542 155.641708,132.277023 
	C182.632797,114.843636 183.964844,83.089516 158.417374,63.681015 
	C145.563568,53.915936 130.649628,50.642620 114.972343,52.471210 
	C93.855751,54.934242 76.928978,64.169533 68.359932,85.916534 
z"/>
<path fill="#000000" opacity="1.000000" stroke="none" 
	d="
M103.027435,102.021545 
	C98.421364,101.802483 94.278931,101.594124 90.138077,101.357971 
	C88.789833,101.281090 87.266235,101.176743 87.250816,99.379547 
	C87.236412,97.701843 88.682312,97.276245 90.023537,97.079254 
	C91.166306,96.911407 92.341858,96.929909 93.502937,96.929146 
	C112.275368,96.916916 131.047791,96.914528 149.820221,96.911423 
	C150.484665,96.911316 151.155945,96.868935 151.812210,96.946411 
	C153.561188,97.152885 156.006195,96.783203 156.161880,99.203957 
	C156.346878,102.080551 153.689499,101.952583 151.804382,101.954269 
	C139.513214,101.965240 127.222000,101.833557 114.930664,101.800919 
	C111.117897,101.790794 107.304695,101.943359 103.027435,102.021545 
z"/>
<path fill="#000000" opacity="1.000000" stroke="none" 
	d="
M124.000153,82.726791 
	C133.333206,82.727692 142.166290,82.719872 150.999344,82.739319 
	C152.160217,82.741882 153.340546,82.777840 154.476273,82.989464 
	C155.761795,83.228981 156.549240,84.112686 156.439011,85.469856 
	C156.343506,86.645943 155.455276,87.148468 154.371429,87.231300 
	C153.210327,87.320023 152.042053,87.345085 150.876877,87.345840 
	C131.710770,87.358253 112.544655,87.363342 93.378548,87.365952 
	C92.378853,87.366089 91.377495,87.358986 90.379845,87.302963 
	C88.821968,87.215477 87.128265,86.972008 87.188423,84.987968 
	C87.247375,83.043777 88.950897,82.787338 90.501778,82.773865 
	C95.667824,82.728981 100.834343,82.734428 106.000694,82.729279 
	C111.833847,82.723465 117.667007,82.727066 124.000153,82.726791 
z"/>
<path fill="#000000" opacity="1.000000" stroke="none" 
	d="
M136.995697,111.609818 
	C142.478470,111.608948 147.462189,111.593979 152.445663,111.620605 
	C154.032486,111.629089 156.104462,111.085739 156.272705,113.572990 
	C156.427917,115.867500 154.599976,116.206940 152.860092,116.207787 
	C132.260635,116.217819 111.661125,116.208275 91.061729,116.157333 
	C89.220390,116.152786 86.998222,115.928307 87.188675,113.416191 
	C87.366669,111.068390 89.550621,111.595467 91.145599,111.594955 
	C106.262573,111.590103 121.379547,111.603607 136.995697,111.609818 
z"/>
</svg>