<svg version="1.1" id="Layer_1" xmlns="http://www.w3.org/2000/svg" xmlns:xlink="http://www.w3.org/1999/xlink" x="0px" y="0px"
	 width="100%" viewBox="0 0 192 192" enable-background="new 0 0 192 192" xml:space="preserve">
<path fill="#000000" opacity="1.000000" stroke="none" 
	d="
M156.028259,125.967888 
	C151.093201,124.395477 148.481400,119.637215 143.998093,117.289574 
	C140.657379,115.540253 137.831390,112.732994 134.243042,111.309540 
	C131.925995,110.390381 131.507721,108.234550 130.757843,106.424088 
	C128.835785,106.321823 127.834076,107.335327 127.787399,108.730453 
	C127.720688,110.724342 129.533081,111.319191 131.028717,112.077339 
	C146.511383,119.925644 156.901138,132.142868 162.010101,148.714905 
	C163.372696,153.134796 164.292679,157.724075 165.001801,162.299759 
	C165.408676,164.925140 164.521912,167.485291 162.320587,169.597549 
	C155.452164,166.206055 154.527847,159.435165 153.190857,153.657364 
	C149.106537,136.007080 131.551941,119.722389 113.653580,116.302650 
	C97.101517,113.140152 82.880585,117.519569 69.505119,126.661583 
	C60.249065,132.988007 56.632389,142.860413 53.159462,152.802185 
	C52.174503,155.621780 51.232975,158.468628 50.503777,161.361511 
	C49.963669,163.504242 49.380268,165.827103 52.678379,168.968918 
	C52.288040,159.671524 55.051151,152.734604 60.464848,145.768036 
	C61.224121,149.133896 61.047268,151.443375 59.660908,153.852386 
	C57.267647,158.011063 56.003666,162.221893 58.219166,167.098465 
	C59.925297,170.853851 56.305397,174.223724 51.213753,174.034805 
	C49.230881,173.961243 47.248737,173.854065 45.265228,173.815857 
	C43.298462,173.777939 41.330395,173.807556 39.155594,173.807556 
	C37.821083,172.689026 37.297947,170.451141 38.429016,169.557190 
	C41.520741,167.113724 40.476021,163.890533 40.965137,160.906982 
	C42.874050,149.262711 46.488472,138.467117 54.897972,129.574402 
	C61.205429,122.904518 67.303505,116.187790 75.698700,112.004440 
	C78.356842,110.679871 79.408791,108.641159 76.279800,106.288231 
	C69.653191,101.305176 66.006538,94.200409 62.831902,86.815659 
	C62.316814,85.617477 61.954254,84.242668 61.958469,82.950928 
	C61.980213,76.293724 61.466656,69.624817 61.477406,63.014717 
	C61.493156,53.328236 67.834839,46.789822 75.095688,40.920273 
	C84.762993,33.105389 96.238113,29.717089 107.931671,29.763067 
	C119.079842,29.806904 129.039429,35.213280 135.835617,44.853046 
	C137.465012,47.164188 139.139786,49.511471 140.308456,52.064278 
	C142.356628,56.538300 145.119171,61.168758 140.148407,65.770683 
	C142.529129,68.335472 145.468201,70.421059 144.162689,74.655647 
	C142.021332,73.700813 143.756882,70.548676 141.118958,69.966484 
	C138.343094,71.423897 140.339828,74.911095 138.221451,77.056122 
	C138.166016,69.462585 135.272964,62.845486 132.168533,56.306641 
	C127.265411,45.979275 114.266350,39.327835 103.015182,38.812073 
	C93.570381,38.379108 86.618866,43.655182 78.497879,46.168392 
	C77.778770,46.390938 76.808441,47.087063 76.673393,47.717228 
	C74.876411,56.102707 69.001732,63.269772 69.718918,72.443855 
	C71.332428,93.083565 86.382835,106.928101 107.243416,104.543694 
	C119.163605,103.181190 127.918640,97.066849 133.360779,86.269608 
	C134.382050,84.243401 135.119949,81.901268 137.622421,80.660347 
	C144.948639,87.616058 138.396515,94.160919 136.231857,101.324570 
	C140.352661,100.055351 141.583511,96.595726 144.664337,95.165977 
	C147.134277,96.635635 148.200684,98.860619 147.510864,101.749916 
	C146.379227,106.489639 147.911972,111.010689 148.470612,115.604431 
	C149.030289,120.206551 153.982422,121.630768 155.899445,125.678894 
	C155.999802,125.997261 156.028259,125.967888 156.028259,125.967888 
z"/>
<path fill="#000000" opacity="1.000000" stroke="none" 
	d="
M123.477997,59.586845 
	C117.677429,53.986828 111.197929,49.995060 104.305069,46.632576 
	C100.818169,44.931595 97.352493,44.734863 93.781242,46.600014 
	C90.457504,48.335888 87.005280,49.825741 83.088860,51.669003 
	C88.315567,43.492146 102.523239,39.600220 112.504395,42.721691 
	C126.608742,47.132629 135.453659,63.442368 133.941956,75.682579 
	C132.272537,89.199730 120.124481,101.103477 105.680641,103.165527 
	C97.188431,104.377907 80.831223,97.227104 79.409248,89.275223 
	C85.225151,94.573158 92.664581,92.675186 98.668907,96.391052 
	C100.610863,97.592857 105.055923,94.896057 108.300407,93.815704 
	C114.448570,91.768486 119.419868,87.390511 125.737389,85.414474 
	C130.992859,83.770615 132.097839,68.875595 127.626678,64.923393 
	C125.963737,63.453457 124.548714,61.916149 123.477997,59.586845 
z"/>
<path fill="#000000" opacity="1.000000" stroke="none" 
	d="
M129.549835,125.373421 
	C142.494888,134.729980 149.894547,145.445084 150.576279,155.850754 
	C145.863983,155.450485 144.714905,151.303375 142.755112,148.372528 
	C136.630600,139.213348 130.585373,130.114182 118.342262,128.542068 
	C118.021164,128.500839 117.628448,128.403839 117.419960,128.187500 
	C108.704201,119.142731 99.194557,126.339684 90.033455,126.910995 
	C88.257507,127.021751 86.527748,128.046738 84.660599,127.612144 
	C82.446617,127.096802 80.946716,127.841103 79.498123,129.619598 
	C77.657875,131.878952 68.348724,137.076202 64.846054,138.137970 
	C67.166222,132.115860 71.938385,128.755463 76.750046,125.754280 
	C94.058151,114.958641 111.622116,114.114693 129.549835,125.373421 
z"/>
<path fill="#000000" opacity="1.000000" stroke="none" 
	d="
M61.386070,116.893860 
	C60.244423,116.061592 60.916901,115.332664 61.288059,114.654472 
	C65.522232,106.917725 64.734200,102.760109 57.825432,96.560654 
	C55.949211,94.877068 55.941528,93.456169 57.881210,87.149361 
	C61.339443,90.298256 62.951508,94.553986 65.586296,98.052010 
	C67.575554,100.692993 69.063080,103.768326 71.828300,105.729492 
	C74.785294,107.826675 73.788200,109.590164 71.456512,111.090065 
	C68.258591,113.147163 64.922653,114.989716 61.386070,116.893860 
z"/>
<path fill="#000000" opacity="1.000000" stroke="none" 
	d="
M155.984619,126.010918 
	C159.230682,126.050713 161.271317,127.151817 161.243622,130.946487 
	C161.225662,133.408295 163.043533,135.432266 164.818665,136.737854 
	C170.720474,141.078568 170.293549,147.710892 171.519623,153.758301 
	C171.765808,154.972610 171.328735,156.213745 169.952072,156.483292 
	C168.061798,156.853378 167.323395,155.483002 166.838913,153.966660 
	C164.564728,146.848663 162.227844,139.761887 158.678375,133.136093 
	C157.591339,131.106903 156.185532,129.165085 156.054565,126.344437 
	C156.028259,125.967888 155.999802,125.997261 155.984619,126.010918 
z"/>
<path fill="#000000" opacity="1.000000" stroke="none" 
	d="
M64.322311,47.336525 
	C59.231010,55.522762 57.414261,64.357353 56.485634,73.951393 
	C51.122375,65.105011 57.353493,47.490688 68.495842,39.090294 
	C68.477798,42.639721 65.263824,44.243843 64.322311,47.336525 
z"/>
<path fill="#000000" opacity="1.000000" stroke="none" 
	d="
M107.921570,27.146858 
	C105.493240,26.980856 103.500717,26.868181 101.521317,26.641123 
	C101.118790,26.594946 100.765678,26.117949 100.348473,25.808964 
	C107.064857,21.393824 128.912613,28.082127 132.884094,36.831738 
	C124.892807,30.971430 117.102211,27.698444 107.921570,27.146858 
z"/>
<path fill="#000000" opacity="1.000000" stroke="none" 
	d="
M78.765434,54.426537 
	C81.043526,53.444473 81.893318,54.599117 80.753349,56.019051 
	C77.741737,59.770252 77.416367,64.642960 75.072624,68.687347 
	C72.126060,65.306824 72.945969,62.071579 78.765434,54.426537 
z"/>
<path fill="#000000" opacity="1.000000" stroke="none" 
	d="
M42.291496,141.297028 
	C41.632030,146.506989 40.652069,151.454666 38.159218,156.774200 
	C36.362984,150.498322 38.515881,142.927887 42.291496,141.297028 
z"/>
</svg>