<?xml version="1.0" standalone="no"?>
<!DOCTYPE svg PUBLIC "-//W3C//DTD SVG 1.0//EN" "http://www.w3.org/TR/2001/REC-SVG-20010904/DTD/svg10.dtd">
<svg xmlns="http://www.w3.org/2000/svg" xmlns:xlink="http://www.w3.org/1999/xlink" id="body_1" width="625" height="468">

<g transform="matrix(1.3295455 0 0 1.3295455 78.500015 -0)">
    <path d="M174.22183 227.90636C 177.1684 227.43712 177.66174 225.66167 177.65994 223.44507C 177.6435 203.28099 177.80345 183.11458 177.49696 162.95514C 177.44524 159.55309 176.74243 156.07936 176.53311 152.58069C 176.11606 145.60999 171.1792 142.1952 163.68156 142.95059C 155.93979 143.73056 148.40948 146.51562 140.4593 145.35736C 138.835 145.12071 137.18407 145.0671 135.53087 144.92789C 134.64478 146.1629 135.49844 147.16116 135.93863 148.16112C 141.84448 161.57686 147.77052 174.98372 153.69534 188.3911C 154.09863 189.3037 154.58575 190.1824 154.94162 191.11217C 155.86629 193.52817 161.63751 192.11691 159.76427 195.98428C 157.24806 201.17903 156.16458 207.59436 149.80739 210.34636C 147.18076 211.48341 144.51039 212.72876 141.76894 212.91481C 133.15656 213.49933 124.47328 214.34438 115.96286 212.0042C 108.61885 209.98474 102.56781 202.76106 101.95622 195.43285C 101.90638 194.83563 102.08069 193.96866 102.48749 193.62144C 110.63108 186.67023 112.023636 176.01915 116.86916 167.26929C 120.73186 160.29424 123.698685 152.82211 127.04114 145.56049C 128.00581 143.46469 129.15002 141.47409 128.0984 138.92639C 127.39463 137.2214 128.00867 135.47981 130.04218 135.03114C 131.94487 134.61134 132.81236 135.8988 132.86162 137.62674C 132.92279 139.77303 134.36053 140.3334 136.04333 140.85947C 139.97696 142.08917 143.90218 141.95174 147.85901 141.03807C 157.75774 138.75243 167.49031 134.0485 178.2863 139.44983C 172.10426 131.11017 178.44983 125.04841 181.00958 118.30838C 183.45831 125.081856 190.24408 131.19106 183.38625 138.89958C 183.84145 139.24805 184.15308 139.62376 184.28587 139.56865C 192.02448 136.35658 199.67964 136.47388 207.5866 139.30888C 211.91484 140.86075 216.4934 142.15941 221.266 141.65958C 224.829 141.28639 228.82549 141.67004 229.4114 136.45576C 229.5537 135.18954 230.8297 134.62213 232.14479 134.96207C 233.66127 135.35405 234.61002 136.67656 234.11053 137.9648C 232.38078 142.42632 235.26375 145.61983 236.86389 149.1349C 242.72964 162.02042 248.66321 174.87527 254.62949 187.7146C 255.58652 189.77411 256.23642 192.08434 258.79605 193.04755C 260.26825 193.60155 260.30637 194.95833 259.8568 196.43259C 257.13565 205.35641 252.21278 212.04956 242.17526 212.90266C 233.56783 213.63419 224.94647 214.05563 216.35753 212.08311C 207.41875 210.03026 205.2467 202.38588 202.07295 195.53479C 201.49072 194.27794 202.50714 193.11882 203.72656 192.93108C 206.985 192.4294 207.78545 189.85342 208.86055 187.41248C 214.43225 174.76266 220.03003 162.12433 225.59575 149.47191C 226.18561 148.13101 226.62552 146.72417 227.5029 144.35408C 216.99219 147.07672 207.58348 144.14203 198.00487 142.7914C 189.16138 141.54439 184.30034 147.40948 186.12753 156.50691C 186.65137 159.11507 184.21619 160.76508 184.24693 163.47545C 184.47186 183.30368 184.36356 203.13562 184.37123 222.9664C 184.37201 224.99448 184.37369 226.87265 186.98079 227.68904C 190.14655 228.68036 190.58322 231.1807 188.78036 233.58305C 186.5934 236.49724 187.17738 239.19217 188.58902 241.97289C 192.30974 249.30212 197.84195 254.58995 206.0134 256.5356C 209.61115 257.39227 211.14824 261.3561 215.1888 261.90564C 216.51364 262.08582 216.47893 265.82602 213.73392 266.8706C 212.84087 267.21042 211.75781 267.11057 210.76161 267.11102C 190.9308 267.1199 171.09999 267.117 151.26918 267.10233C 150.2736 267.1016 149.18388 267.21048 148.3001 266.8598C 145.54683 265.76736 145.579 262.0462 146.95258 261.85437C 151.02406 261.28577 152.61635 257.3134 156.30591 256.45776C 163.90044 254.6966 169.27107 249.9068 172.85588 243.07652C 174.60297 239.74779 175.96213 236.46422 173.021 232.89743C 171.7368 231.34004 172.14293 229.42114 174.22183 227.90636zM238.13422 158.28008C 236.5714 154.94652 235.00858 151.61296 233.44576 148.2794C 232.39114 162.20564 232.38654 175.8254 232.39702 189.44514C 232.39832 191.12683 233.03569 192.52574 234.90588 192.55078C 240.96336 192.63188 247.02263 192.58107 254.16034 192.58107C 248.56163 180.60359 243.50395 169.7836 238.13422 158.28008zM125.09129 192.67276C 128.58812 193.0384 129.77406 191.38907 129.71333 187.98947C 129.56766 179.83461 129.67447 171.67525 129.67754 163.5177C 129.67943 158.48828 129.67789 153.45886 129.67789 148.42944C 129.26491 148.37187 128.85194 148.3143 128.43896 148.25671C 121.75024 162.75253 115.0615 177.24835 107.9419 192.67793C 114.25495 192.67793 119.21678 192.67793 125.09129 192.67276zM229.75986 174.49889C 229.75986 165.69879 229.75986 156.8987 229.75986 148.0986C 229.46014 148.08185 229.16043 148.0651 228.86072 148.04836C 222.51639 162.53659 216.17206 177.02483 209.60567 192.0202C 215.8172 193.12689 220.80345 192.44029 225.74385 192.69867C 228.85037 192.86113 229.8461 191.3764 229.77428 188.48654C 229.66672 184.15958 229.7564 179.82771 229.75986 174.49889zM135.15439 152.76524C 134.5286 152.06209 134.48163 150.83934 133.26407 150.6469C 133.04485 150.89806 132.64812 151.14005 132.64618 151.3852C 132.54468 164.16585 132.4639 176.94673 132.4226 189.72774C 132.4179 191.18657 133.10739 192.45538 134.69824 192.51184C 140.40842 192.71446 146.13374 192.99103 152.54651 192.26085C 146.63391 178.79172 141.04991 166.07114 135.15439 152.76524z" stroke="none" fill="#000000" fill-rule="nonzero" />
</g>
</svg>